<?xml version="1.0" standalone="no"?>
<!DOCTYPE svg PUBLIC "-//W3C//DTD SVG 20010904//EN"
 "http://www.w3.org/TR/2001/REC-SVG-20010904/DTD/svg10.dtd">
<svg version="1.0" xmlns="http://www.w3.org/2000/svg"
 width="167.000000pt" height="141.000000pt" viewBox="0 0 167.000000 141.000000"
 preserveAspectRatio="xMidYMid meet">

<g transform="translate(0.000000,141.000000) scale(0.100000,-0.100000)"
fill="#e8505b" stroke="none">
<path d="M323 1395 c-29 -8 -72 -24 -94 -36 -51 -26 -134 -101 -165 -151 -85
-134 -85 -332 1 -468 15 -25 104 -121 196 -215 l168 -170 501 500 c275 275
500 503 500 506 0 11 -53 30 -121 41 -89 15 -178 1 -268 -43 -57 -28 -104 -69
-339 -303 l-272 -270 -60 59 c-83 82 -96 138 -48 208 29 41 73 60 125 54 24
-2 53 -13 64 -23 20 -18 22 -16 127 89 l107 108 -35 29 c-103 86 -258 119
-387 85z"/>
<path d="M1428 973 l-188 -188 -50 50 -50 50 -107 -108 -108 -107 50 -50 50
-50 -198 -198 c-108 -108 -197 -202 -197 -207 0 -6 35 -45 78 -88 76 -75 78
-77 128 -77 l50 0 355 358 c321 322 360 364 390 426 29 61 34 81 37 166 4 103
-17 210 -41 210 -7 0 -96 -84 -199 -187z"/>
</g>
</svg>
