<svg id="logo-he4rt22" xmlns="http://www.w3.org/2000/svg" width="169.377" height="44" viewBox="0 0 169.377 44">
  <path id="Caminho_161" data-name="Caminho 161" d="M47.1-551.664a12.8,12.8,0,0,0-7.916,3.817,12.677,12.677,0,0,0-3.58,6.588,16.8,16.8,0,0,0-.009,5.269,13.193,13.193,0,0,0,2.023,4.732c.625.941,1.02,1.363,5.735,6.1l5.066,5.075,15.147-15.147c8.339-8.339,15.155-15.182,15.155-15.217a8.9,8.9,0,0,0-2.331-.862,13.019,13.019,0,0,0-8.9.88,14.484,14.484,0,0,0-2.709,1.7c-.237.193-4.02,3.932-8.4,8.3l-7.969,7.943-1.768-1.786c-1.61-1.619-1.812-1.847-2.1-2.463a4.211,4.211,0,0,1-.026-3.756,5.643,5.643,0,0,1,1.7-1.882,4.429,4.429,0,0,1,4.961.37l.387.308,3.087-3.1,3.1-3.1-.528-.484a15.374,15.374,0,0,0-2.595-1.812A13.493,13.493,0,0,0,47.1-551.664Z" transform="translate(-35.387 551.728)" fill="#e8505b"/>
  <path id="Caminho_162" data-name="Caminho 162" d="M763-471.366v13.634h7.213v-10.643H780.24v10.643h7.213V-485H780.24v10.027l-4.987-.018-5-.026-.026-5L770.213-485H763Z" transform="translate(-698.999 490.869)" fill="#e8505b"/>
  <path id="Caminho_163" data-name="Caminho 163" d="M277.953-461.107l-5.893,5.893-1.539-1.539-1.539-1.539-3.1,3.1-3.1,3.1,1.539,1.539,1.539,1.539-6.175,6.175-6.184,6.184,3.1,3.1,3.1,3.1,11.048-11.039c6.069-6.069,11.294-11.364,11.611-11.76a13.135,13.135,0,0,0,2.173-12.121,9.126,9.126,0,0,0-.66-1.627C283.855-467,281.19-464.352,277.953-461.107Z" transform="translate(-234.315 474.453)" fill="#e8505b"/>
  <path id="Caminho_164" data-name="Caminho 164" d="M1332.471-458.881l-5.471,8.11.018,2.463.026,2.463,5.744.026,5.735.018v4.486h6.245v-4.477l1.3-.026,1.293-.026.026-2.744.018-2.744-1.293-.026-1.3-.026-.026-7.811-.018-7.8h-3.413l-3.4.009Zm6.008,7.424a9.018,9.018,0,0,1-2.595.114c-1.4,0-2.551-.018-2.551-.035,0-.044,2.788-4.152,4.389-6.474l.756-1.1.026,3.694C1338.514-453.226,1338.505-451.51,1338.479-451.458Z" transform="translate(-1213.39 474.453)" fill="#e8505b"/>
  <path id="Caminho_165" data-name="Caminho 165" d="M1778.8-451.344l-.027,2.665-1.381.026-1.39.026v5.269h2.8l.044,3.888a30.939,30.939,0,0,0,.185,4.688A6.669,6.669,0,0,0,1781.92-430a8.163,8.163,0,0,0,4.943,1.2,7.192,7.192,0,0,0,2.34-.237,11.478,11.478,0,0,0,2.612-1.029l.458-.264V-432.2l-.932-1.469-.933-1.478-.818.422a3.11,3.11,0,0,1-2.269.431,1.808,1.808,0,0,1-1.39-1.064l-.211-.475-.027-3.765-.026-3.756h4.759v-5.278l-2.349-.018-2.357-.026-.027-2.665-.018-2.656h-6.861Z" transform="translate(-1622.896 462.596)" fill="#e8505b"/>
  <path id="Caminho_166" data-name="Caminho 166" d="M1091.378-400.726a9.786,9.786,0,0,0-5,1.786,10.575,10.575,0,0,0-3.967,9.755c.4,4.248,2.551,7.054,6.333,8.259a16.9,16.9,0,0,0,9.5-.123,16.351,16.351,0,0,0,2.806-1.161l.2-.167-1.029-2.146c-.563-1.179-1.056-2.181-1.091-2.217a1.185,1.185,0,0,0-.589.194,10.657,10.657,0,0,1-4.873,1.082,6.331,6.331,0,0,1-3.07-.589,2.955,2.955,0,0,1-1.645-2.049l-.062-.369h12.983l-.053-1.61c-.035-.88-.114-1.962-.185-2.393-.616-3.668-2.551-6.368-5.418-7.547A10.743,10.743,0,0,0,1091.378-400.726Zm2.481,5.462a3.361,3.361,0,0,1,1.636,1.715,3.072,3.072,0,0,1,.193.721v.22h-6.8l.062-.369a2.943,2.943,0,0,1,.818-1.574,3.076,3.076,0,0,1,2.674-1.02A2.528,2.528,0,0,1,1093.858-395.264Z" transform="translate(-990.258 414.046)" fill="#e8505b"/>
  <path id="Caminho_167" data-name="Caminho 167" d="M1610.485-396.5a5.945,5.945,0,0,0-3.088,1.953l-.51.572-.053-.431c-.035-.229-.088-.748-.114-1.152l-.062-.721H1600V-377.1h6.852l.035-4.952c.035-5.436.035-5.48.589-6.579a3.542,3.542,0,0,1,2.48-1.882,9.087,9.087,0,0,1,2.771-.035,2,2,0,0,0,.607.053c.035-.035.915-5.6.915-5.788C1614.25-396.539,1611.4-396.706,1610.485-396.5Z" transform="translate(-1462.377 410.237)" fill="#e8505b"/>
</svg>
