<svg id="menu" xmlns="http://www.w3.org/2000/svg" width="41.161" height="36.939" viewBox="0 0 41.161 36.939">
  <g id="Grupo_490" data-name="Grupo 490">
    <path id="Caminho_168" data-name="Caminho 168" d="M2.638,31.533H38.523a2.639,2.639,0,1,0,0-5.277H2.638a2.639,2.639,0,0,0,0,5.277Z" transform="translate(0 -26.256)" fill="#ff485a"/>
    <path id="Caminho_169" data-name="Caminho 169" d="M2.639,228.456H23.747a2.639,2.639,0,0,0,0-5.277H2.639a2.639,2.639,0,0,0,0,5.277Z" transform="translate(14.776 -207.348)" fill="#ff485a"/>
  </g>
  <path id="Caminho_170" data-name="Caminho 170" d="M396.485,228.456h4.222a2.639,2.639,0,1,0,0-5.277h-4.222a2.639,2.639,0,0,0,0,5.277Z" transform="translate(-393.846 -207.348)" fill="#ffbbc0"/>
  <path id="Caminho_171" data-name="Caminho 171" d="M2.638,425.379H38.523a2.639,2.639,0,1,0,0-5.277H2.638a2.639,2.639,0,0,0,0,5.277Z" transform="translate(0 -388.44)" fill="#ff485a"/>
</svg>
